<mxfile host="app.diagrams.net" modified="2023-06-06T06:01:43.553Z" agent="5.0 (Macintosh; Intel Mac OS X 10_15_7) AppleWebKit/537.36 (KHTML, like Gecko) Chrome/113.0.0.0 Safari/537.36" etag="iC6X-C97VoH5QCfbW3PM" version="20.8.23" type="github">
  <diagram name="第 1 页" id="xQGLZ8-OGcHBai4tiZJq">
    <mxGraphModel dx="954" dy="591" grid="1" gridSize="10" guides="1" tooltips="1" connect="1" arrows="1" fold="1" page="1" pageScale="1" pageWidth="827" pageHeight="1169" math="0" shadow="0">
      <root>
        <mxCell id="0" />
        <mxCell id="1" parent="0" />
        <mxCell id="ZRsJyE10DOSO7oIuJe0f-12" value="" style="edgeStyle=orthogonalEdgeStyle;rounded=0;orthogonalLoop=1;jettySize=auto;html=1;" edge="1" parent="1" source="ZRsJyE10DOSO7oIuJe0f-1" target="ZRsJyE10DOSO7oIuJe0f-2">
          <mxGeometry relative="1" as="geometry" />
        </mxCell>
        <mxCell id="ZRsJyE10DOSO7oIuJe0f-1" value="1,NULL,boss" style="rounded=0;whiteSpace=wrap;html=1;" vertex="1" parent="1">
          <mxGeometry x="320" y="30" width="130" height="30" as="geometry" />
        </mxCell>
        <mxCell id="ZRsJyE10DOSO7oIuJe0f-14" style="edgeStyle=orthogonalEdgeStyle;rounded=0;orthogonalLoop=1;jettySize=auto;html=1;entryX=0.592;entryY=0.017;entryDx=0;entryDy=0;entryPerimeter=0;" edge="1" parent="1" source="ZRsJyE10DOSO7oIuJe0f-2" target="ZRsJyE10DOSO7oIuJe0f-4">
          <mxGeometry relative="1" as="geometry" />
        </mxCell>
        <mxCell id="ZRsJyE10DOSO7oIuJe0f-15" style="edgeStyle=orthogonalEdgeStyle;rounded=0;orthogonalLoop=1;jettySize=auto;html=1;entryX=0.5;entryY=0;entryDx=0;entryDy=0;" edge="1" parent="1" source="ZRsJyE10DOSO7oIuJe0f-2" target="ZRsJyE10DOSO7oIuJe0f-3">
          <mxGeometry relative="1" as="geometry" />
        </mxCell>
        <mxCell id="ZRsJyE10DOSO7oIuJe0f-2" value="2,1,emp2" style="rounded=0;whiteSpace=wrap;html=1;" vertex="1" parent="1">
          <mxGeometry x="320" y="90" width="130" height="30" as="geometry" />
        </mxCell>
        <mxCell id="ZRsJyE10DOSO7oIuJe0f-23" style="edgeStyle=orthogonalEdgeStyle;rounded=0;orthogonalLoop=1;jettySize=auto;html=1;exitX=0.5;exitY=1;exitDx=0;exitDy=0;entryX=0.5;entryY=0;entryDx=0;entryDy=0;" edge="1" parent="1" source="ZRsJyE10DOSO7oIuJe0f-3" target="ZRsJyE10DOSO7oIuJe0f-9">
          <mxGeometry relative="1" as="geometry" />
        </mxCell>
        <mxCell id="ZRsJyE10DOSO7oIuJe0f-3" value="11,2,emp11" style="rounded=0;whiteSpace=wrap;html=1;" vertex="1" parent="1">
          <mxGeometry x="510" y="150" width="130" height="30" as="geometry" />
        </mxCell>
        <mxCell id="ZRsJyE10DOSO7oIuJe0f-16" style="edgeStyle=orthogonalEdgeStyle;rounded=0;orthogonalLoop=1;jettySize=auto;html=1;entryX=0.638;entryY=-0.117;entryDx=0;entryDy=0;entryPerimeter=0;" edge="1" parent="1" source="ZRsJyE10DOSO7oIuJe0f-4" target="ZRsJyE10DOSO7oIuJe0f-6">
          <mxGeometry relative="1" as="geometry" />
        </mxCell>
        <mxCell id="ZRsJyE10DOSO7oIuJe0f-17" style="edgeStyle=orthogonalEdgeStyle;rounded=0;orthogonalLoop=1;jettySize=auto;html=1;entryX=0.423;entryY=0.017;entryDx=0;entryDy=0;entryPerimeter=0;" edge="1" parent="1" source="ZRsJyE10DOSO7oIuJe0f-4" target="ZRsJyE10DOSO7oIuJe0f-5">
          <mxGeometry relative="1" as="geometry" />
        </mxCell>
        <mxCell id="ZRsJyE10DOSO7oIuJe0f-4" value="3,2,emp3" style="rounded=0;whiteSpace=wrap;html=1;" vertex="1" parent="1">
          <mxGeometry x="150" y="150" width="130" height="30" as="geometry" />
        </mxCell>
        <mxCell id="ZRsJyE10DOSO7oIuJe0f-22" style="edgeStyle=orthogonalEdgeStyle;rounded=0;orthogonalLoop=1;jettySize=auto;html=1;entryX=0.75;entryY=1;entryDx=0;entryDy=0;" edge="1" parent="1" source="ZRsJyE10DOSO7oIuJe0f-5" target="ZRsJyE10DOSO7oIuJe0f-4">
          <mxGeometry relative="1" as="geometry" />
        </mxCell>
        <mxCell id="ZRsJyE10DOSO7oIuJe0f-31" style="edgeStyle=orthogonalEdgeStyle;rounded=0;orthogonalLoop=1;jettySize=auto;html=1;exitX=0.5;exitY=1;exitDx=0;exitDy=0;entryX=0.5;entryY=0;entryDx=0;entryDy=0;" edge="1" parent="1" source="ZRsJyE10DOSO7oIuJe0f-5" target="ZRsJyE10DOSO7oIuJe0f-20">
          <mxGeometry relative="1" as="geometry" />
        </mxCell>
        <mxCell id="ZRsJyE10DOSO7oIuJe0f-5" value="2,3,emp15" style="rounded=0;whiteSpace=wrap;html=1;" vertex="1" parent="1">
          <mxGeometry x="284" y="220" width="130" height="30" as="geometry" />
        </mxCell>
        <mxCell id="ZRsJyE10DOSO7oIuJe0f-38" style="edgeStyle=orthogonalEdgeStyle;rounded=0;orthogonalLoop=1;jettySize=auto;html=1;exitX=0.5;exitY=1;exitDx=0;exitDy=0;entryX=0.5;entryY=0;entryDx=0;entryDy=0;" edge="1" parent="1" source="ZRsJyE10DOSO7oIuJe0f-6" target="ZRsJyE10DOSO7oIuJe0f-7">
          <mxGeometry relative="1" as="geometry" />
        </mxCell>
        <mxCell id="ZRsJyE10DOSO7oIuJe0f-6" value="4,3,emp4" style="rounded=0;whiteSpace=wrap;html=1;" vertex="1" parent="1">
          <mxGeometry x="70" y="220" width="130" height="30" as="geometry" />
        </mxCell>
        <mxCell id="ZRsJyE10DOSO7oIuJe0f-7" value="5,4,emp5" style="rounded=0;whiteSpace=wrap;html=1;" vertex="1" parent="1">
          <mxGeometry x="70" y="290" width="130" height="30" as="geometry" />
        </mxCell>
        <mxCell id="ZRsJyE10DOSO7oIuJe0f-29" style="edgeStyle=orthogonalEdgeStyle;rounded=0;orthogonalLoop=1;jettySize=auto;html=1;exitX=0.5;exitY=1;exitDx=0;exitDy=0;entryX=0.5;entryY=0;entryDx=0;entryDy=0;" edge="1" parent="1" source="ZRsJyE10DOSO7oIuJe0f-9" target="ZRsJyE10DOSO7oIuJe0f-10">
          <mxGeometry relative="1" as="geometry" />
        </mxCell>
        <mxCell id="ZRsJyE10DOSO7oIuJe0f-9" value="12,11,emp12" style="rounded=0;whiteSpace=wrap;html=1;" vertex="1" parent="1">
          <mxGeometry x="510" y="220" width="130" height="30" as="geometry" />
        </mxCell>
        <mxCell id="ZRsJyE10DOSO7oIuJe0f-30" style="edgeStyle=orthogonalEdgeStyle;rounded=0;orthogonalLoop=1;jettySize=auto;html=1;exitX=0.5;exitY=1;exitDx=0;exitDy=0;entryX=0.5;entryY=0;entryDx=0;entryDy=0;" edge="1" parent="1" source="ZRsJyE10DOSO7oIuJe0f-10" target="ZRsJyE10DOSO7oIuJe0f-11">
          <mxGeometry relative="1" as="geometry" />
        </mxCell>
        <mxCell id="ZRsJyE10DOSO7oIuJe0f-10" value="13,12,emp13" style="rounded=0;whiteSpace=wrap;html=1;" vertex="1" parent="1">
          <mxGeometry x="510" y="290" width="130" height="30" as="geometry" />
        </mxCell>
        <mxCell id="ZRsJyE10DOSO7oIuJe0f-11" value="14,13,emp11" style="rounded=0;whiteSpace=wrap;html=1;" vertex="1" parent="1">
          <mxGeometry x="510" y="350" width="130" height="30" as="geometry" />
        </mxCell>
        <mxCell id="ZRsJyE10DOSO7oIuJe0f-19" style="edgeStyle=orthogonalEdgeStyle;rounded=0;orthogonalLoop=1;jettySize=auto;html=1;exitX=0.5;exitY=1;exitDx=0;exitDy=0;" edge="1" parent="1" source="ZRsJyE10DOSO7oIuJe0f-5" target="ZRsJyE10DOSO7oIuJe0f-5">
          <mxGeometry relative="1" as="geometry" />
        </mxCell>
        <mxCell id="ZRsJyE10DOSO7oIuJe0f-32" style="edgeStyle=orthogonalEdgeStyle;rounded=0;orthogonalLoop=1;jettySize=auto;html=1;exitX=0.5;exitY=1;exitDx=0;exitDy=0;entryX=0.5;entryY=0;entryDx=0;entryDy=0;" edge="1" parent="1" source="ZRsJyE10DOSO7oIuJe0f-20" target="ZRsJyE10DOSO7oIuJe0f-26">
          <mxGeometry relative="1" as="geometry" />
        </mxCell>
        <mxCell id="ZRsJyE10DOSO7oIuJe0f-20" value="11,2,emp11" style="rounded=0;whiteSpace=wrap;html=1;" vertex="1" parent="1">
          <mxGeometry x="284" y="290" width="130" height="30" as="geometry" />
        </mxCell>
        <mxCell id="ZRsJyE10DOSO7oIuJe0f-25" value="" style="edgeStyle=orthogonalEdgeStyle;rounded=0;orthogonalLoop=1;jettySize=auto;html=1;" edge="1" parent="1" source="ZRsJyE10DOSO7oIuJe0f-26" target="ZRsJyE10DOSO7oIuJe0f-28">
          <mxGeometry relative="1" as="geometry" />
        </mxCell>
        <mxCell id="ZRsJyE10DOSO7oIuJe0f-37" style="edgeStyle=orthogonalEdgeStyle;rounded=0;orthogonalLoop=1;jettySize=auto;html=1;exitX=0.5;exitY=1;exitDx=0;exitDy=0;" edge="1" parent="1" source="ZRsJyE10DOSO7oIuJe0f-26">
          <mxGeometry relative="1" as="geometry">
            <mxPoint x="349" y="420" as="targetPoint" />
          </mxGeometry>
        </mxCell>
        <mxCell id="ZRsJyE10DOSO7oIuJe0f-26" value="12,11,emp12" style="rounded=0;whiteSpace=wrap;html=1;" vertex="1" parent="1">
          <mxGeometry x="284" y="350" width="130" height="30" as="geometry" />
        </mxCell>
        <mxCell id="ZRsJyE10DOSO7oIuJe0f-35" value="" style="edgeStyle=orthogonalEdgeStyle;rounded=0;orthogonalLoop=1;jettySize=auto;html=1;" edge="1" parent="1" source="ZRsJyE10DOSO7oIuJe0f-27" target="ZRsJyE10DOSO7oIuJe0f-28">
          <mxGeometry relative="1" as="geometry" />
        </mxCell>
        <mxCell id="ZRsJyE10DOSO7oIuJe0f-27" value="13,12,emp13" style="rounded=0;whiteSpace=wrap;html=1;" vertex="1" parent="1">
          <mxGeometry x="284" y="420" width="130" height="30" as="geometry" />
        </mxCell>
        <mxCell id="ZRsJyE10DOSO7oIuJe0f-28" value="14,13,emp11" style="rounded=0;whiteSpace=wrap;html=1;" vertex="1" parent="1">
          <mxGeometry x="284" y="500" width="130" height="30" as="geometry" />
        </mxCell>
        <mxCell id="ZRsJyE10DOSO7oIuJe0f-39" value="loop" style="text;html=1;align=center;verticalAlign=middle;resizable=0;points=[];autosize=1;strokeColor=none;fillColor=none;" vertex="1" parent="1">
          <mxGeometry x="240" y="190" width="50" height="30" as="geometry" />
        </mxCell>
      </root>
    </mxGraphModel>
  </diagram>
</mxfile>
